# Blender v2.79 (sub 0) OBJ File: ''
# www.blender.org
mtllib node.mtl
o Sphere
v 0.000000 -0.057313 -0.099269
v 0.000000 -0.114626 0.000000
v 0.099269 0.057313 0.000000
v 0.099269 -0.057313 0.000000
v -0.000000 0.057313 0.099269
v -0.000000 -0.057313 0.099269
v -0.000000 0.114626 0.000000
v -0.099269 0.057313 -0.000000
v -0.099269 -0.057313 -0.000000
v 0.000000 0.057313 -0.099269
vn 0.4472 -0.7746 -0.4472
vn 0.7071 -0.0000 -0.7071
vn 0.4472 0.7746 -0.4472
vn 0.4472 -0.7746 0.4472
vn 0.7071 -0.0000 0.7071
vn 0.4472 0.7746 0.4472
vn -0.4472 -0.7746 0.4472
vn -0.7071 -0.0000 0.7071
vn -0.4472 0.7746 0.4472
vn -0.4472 -0.7746 -0.4472
vn -0.7071 -0.0000 -0.7071
vn -0.4472 0.7746 -0.4472
usemtl None
s off
f 2//1 1//1 4//1
f 1//2 10//2 3//2 4//2
f 10//3 7//3 3//3
f 2//4 4//4 6//4
f 4//5 3//5 5//5 6//5
f 3//6 7//6 5//6
f 2//7 6//7 9//7
f 6//8 5//8 8//8 9//8
f 5//9 7//9 8//9
f 2//10 9//10 1//10
f 9//11 8//11 10//11 1//11
f 8//12 7//12 10//12
